<svg xmlns="http://www.w3.org/2000/svg" width="533" height="73" viewBox="0 0 533 73" fill="none"><path d="M473.05 71.4948V0.841797H531.502V9.89867L482.957 9.89755V30.2325L525.992 30.2336V39.2909L482.957 39.2898V62.439L532.045 62.4379V71.4948H473.05Z" fill="#2B2B2A"></path><path d="M434.922 36.9945C440.337 40.4471 443.033 45.554 443.033 52.4346V71.4936L433.031 71.4948V52.7442C433.031 45.5563 427.309 41.8908 415.959 41.8908L390.515 41.8897V71.4948H380.513V0.841797H416.881C435.017 0.841797 444.073 7.41552 444.073 20.4435C444.073 27.8208 441.07 33.354 434.922 36.996V36.9945ZM417.093 9.89755H390.515V32.7395H415.415C420.948 32.7395 425.441 31.7935 428.657 29.9256C432.299 27.8219 434.072 24.8176 434.072 20.7519C434.072 13.5637 428.444 9.89867 417.094 9.89867L417.093 9.89755Z" fill="#2B2B2A"></path><path d="M341.44 38.3668C336.332 41.1807 329.876 42.6233 322.263 42.6233L298.286 42.6222V71.4936L288.284 71.4948V0.841797H323.397C342.172 0.841797 351.536 7.93481 351.536 22.0037C351.536 29.192 348.203 34.7015 341.44 38.3668ZM324.036 9.89755H298.286V33.5664L324.131 33.5675C329.144 33.5675 333.211 32.6216 336.332 30.6358C339.76 28.5552 341.44 25.7405 341.44 22.1001C341.44 13.9658 335.599 9.89867 324.036 9.89867V9.89755Z" fill="#2B2B2A"></path><path d="M249.306 71.4948V21.6723L222.326 71.4936L215.137 71.4948L188.135 21.6723V71.4936L178.132 71.4948V0.841797H187.921L218.66 57.6382L249.517 0.841797H259.307V71.4948H249.306Z" fill="#2B2B2A"></path><path d="M90.1592 71.4948V30.1063L143.102 30.2336V39.2909L100.067 39.2898V62.439L149.155 62.4379V71.4948H90.1592ZM90.1592 9.81251V0.841797H148.611V9.89867L90.1592 9.81251Z" fill="#2B2B2A"></path><path d="M52.9767 65.624C47.0221 70.1504 38.6792 72.0401 30.9723 72.0401C23.4998 72.0401 15.6063 70.5219 9.68265 66.6335C4.75187 63.3967 1.19609 58.5533 0.354772 51.6349L0.240234 50.6926L7.79778 47.2207L8.00944 48.9714C8.56238 53.5424 11.0486 56.7912 14.5303 58.9819C18.913 61.739 24.8726 62.868 30.6375 62.868C36.2508 62.868 42.5233 61.7485 46.9144 58.8855C50.1988 56.7436 52.4166 53.5858 52.4166 49.1283C52.4166 41.412 41.809 40.3242 30.5233 39.1669C16.4605 37.7254 1.43495 36.1852 1.43495 21.9682C1.43495 14.9341 4.65398 10.0317 9.26084 6.72008C15.3183 2.36607 23.781 0.841797 30.3022 0.841797C37.4157 0.841797 44.7907 2.18652 50.5235 5.98154C55.2505 9.11061 58.8388 13.8751 60.2293 20.8695L60.4326 21.8911L52.9624 25.1853L52.6196 23.6618C51.567 18.9801 48.8725 15.6832 45.3527 13.4763C40.9832 10.7369 35.3226 9.63788 29.8827 9.63788C25.4346 9.63788 19.4576 10.4777 15.2782 13.1139C12.4436 14.9013 10.4514 17.556 10.4514 21.4043C10.4514 27.7895 20.1073 28.8851 30.7596 30.0934C45.1422 31.7251 61.1821 33.5457 61.1821 48.7522C61.1821 56.3925 57.8962 61.8842 52.9767 65.624Z" fill="#2B2B2A"></path></svg>